# xmcd
#
# Track frame offsets:
#	150
#	18452
#	39360
#	60910
#	85136
#	103455
#	124386
#
# Disc length: 1942 seconds
#
# Revision: 1
# Processed by: cddbd v1.5.1PL0 Copyright (c) Steve Scherf et al.
# Submitted via: CDex 1.50Beta5
#
DISCID=56079407
DTITLE=真田アサミ&かとうひろこ - Welcome! 2000
DYEAR=1900
DGENRE=Anime
TTITLE0=WELCOME! 2000
TTITLE1=WHO ARE YOU?
TTITLE2=ビタミン "D"
TTITLE3=WELCOME! 2000 (リミックスバージョン)
TTITLE4=WELCOME! 2000 (オリジナルカラオケ)
TTITLE5=WHO ARE YOU? (オリジナルカラオケ)
TTITLE6=ビタミン "D" (オリジナルカラオケ)
EXTD=Di Gi Charat CD-BOX Gold Version Disk.2
EXTT0=
EXTT1=
EXTT2=
EXTT3=
EXTT4=
EXTT5=
EXTT6=
PLAYORDER=
